<svg width="405" height="198" viewBox="0 0 405 198" fill="none" xmlns="http://www.w3.org/2000/svg">
<path d="M102.232 117.035C102.29 116.784 102.348 116.532 102.386 116.271C102.445 115.903 102.483 115.531 102.502 115.159C102.549 114.064 102.452 112.968 102.212 111.899C102.212 111.802 102.212 111.696 102.145 111.599C101.395 108.76 99.6327 106.293 97.1901 104.662C94.7475 103.032 91.793 102.352 88.8834 102.749H88.7479C86.1011 102.941 83.4412 102.84 80.8164 102.449C73.0783 101.366 67.9711 96.3164 66.3074 90.1549C63.8892 81.2464 68.5418 72.7442 79.0366 68.3625C85.0627 65.8476 89.1735 60.2761 87.5679 53.9309C87.1871 52.4133 86.5107 50.9858 85.5775 49.73C84.6443 48.4742 83.4725 47.4148 82.1293 46.6125C80.7861 45.8102 79.2978 45.2807 77.7497 45.0543C76.2016 44.8279 74.624 44.9091 73.1073 45.2932C67.1393 46.8022 63.8022 52.5477 64.2665 58.5641C65.1177 69.765 62.1192 76.3327 49.4867 82.1653C49.1561 82.3096 48.8332 82.471 48.5194 82.649C47.3449 83.3227 46.2974 84.1968 45.4242 85.2316C45.2145 85.476 45.0176 85.7311 44.8341 85.9957C44.4665 86.5363 44.143 87.1056 43.8669 87.6981C43.7315 87.9786 43.6154 88.2688 43.4993 88.5686C43.4955 88.6008 43.4955 88.6332 43.4993 88.6654C43.3929 88.9555 43.2962 89.236 43.2091 89.5359V89.652C43.1221 89.9518 43.0447 90.2517 42.9867 90.5515C42.9867 90.5515 42.9867 90.5515 42.9867 90.6289C42.9286 90.9255 42.8803 91.2479 42.8416 91.5962C42.8416 91.9057 42.7835 92.2152 42.7739 92.5634V92.6988C42.7739 92.9987 42.7739 93.3082 42.7739 93.6177C42.7739 93.6661 42.7739 93.7241 42.7739 93.7725C42.7739 94.082 42.8319 94.3916 42.8803 94.7398C42.8756 94.7816 42.8756 94.8237 42.8803 94.8655C42.9297 95.1915 42.9976 95.5144 43.0834 95.8328C43.1608 96.152 43.2575 96.4712 43.3639 96.8C43.3639 96.8 43.3639 96.8774 43.3639 96.9258C43.4606 97.216 43.5767 97.5061 43.7024 97.7867C43.7308 97.8355 43.7535 97.8874 43.7701 97.9414C43.9056 98.2123 44.041 98.4831 44.1861 98.7442C44.1861 98.7926 44.2344 98.8313 44.2538 98.87C44.4182 99.1408 44.573 99.402 44.7568 99.6631C44.9405 99.9243 45.1243 100.176 45.3274 100.427C45.5209 100.669 45.7337 100.901 45.9465 101.124L46.0335 101.201C46.244 101.423 46.4669 101.633 46.701 101.83C46.722 101.857 46.7483 101.88 46.7783 101.898C47.0202 102.11 47.262 102.304 47.5135 102.488C48.0463 102.876 48.6128 103.216 49.2062 103.503C49.4964 103.648 49.7865 103.784 50.0864 103.9H50.1347C51.3979 104.391 52.736 104.663 54.0909 104.703C54.4391 104.703 54.7776 104.703 55.1258 104.703C65.1467 104.287 72.0433 106.714 76.2315 112.247C77.3864 113.874 78.3534 115.626 79.114 117.47L79.172 117.587C81.1936 122.781 85.7204 126.427 90.9436 126.34C91.8209 126.326 92.6938 126.213 93.5456 126.002C95.6237 125.477 97.5211 124.4 99.0367 122.884C100.552 121.369 101.629 119.471 102.154 117.393C102.193 117.287 102.203 117.161 102.232 117.035Z" fill="#5C99D2"/>
<path d="M81.1355 80.9563C81.0775 81.2174 81.0194 81.4689 80.9808 81.7204C80.9224 82.0921 80.8837 82.4666 80.8647 82.8424C80.8097 83.9367 80.9041 85.0333 81.1452 86.1021C81.1452 86.1988 81.1452 86.3052 81.2129 86.4019C81.9644 89.2402 83.727 91.7061 86.1691 93.336C88.6113 94.9658 91.5647 95.6474 94.4741 95.2524H94.6192C97.2657 95.0577 99.9256 95.155 102.551 95.5426C110.289 96.6356 115.396 101.685 117.06 107.846C119.478 116.755 114.825 125.257 104.331 129.639C98.3141 132.173 94.2033 137.783 95.8089 144.09C96.1919 145.604 96.8694 147.029 97.8029 148.282C98.7364 149.535 99.9075 150.591 101.249 151.392C102.591 152.192 104.078 152.72 105.624 152.946C107.17 153.172 108.745 153.091 110.26 152.708C116.228 151.189 119.565 145.453 119.11 139.437C118.249 128.236 121.248 121.668 133.89 115.836C134.209 115.681 134.519 115.526 134.857 115.352C136.03 114.676 137.077 113.802 137.953 112.77C138.156 112.528 138.359 112.267 138.543 112.005C138.909 111.461 139.233 110.888 139.51 110.293C139.645 110.003 139.771 109.713 139.877 109.423C139.881 109.391 139.881 109.358 139.877 109.326C139.984 109.036 140.081 108.755 140.168 108.456C140.168 108.456 140.168 108.378 140.168 108.339C140.245 108.04 140.322 107.74 140.38 107.44C140.385 107.414 140.385 107.388 140.38 107.363C140.448 107.053 140.487 106.744 140.526 106.395C140.526 106.086 140.526 105.767 140.584 105.428V105.283C140.584 104.983 140.584 104.683 140.584 104.374C140.584 104.374 140.584 104.267 140.584 104.209C140.584 103.9 140.535 103.6 140.487 103.29V103.155C140.487 102.836 140.371 102.507 140.293 102.188C140.216 101.869 140.11 101.549 140.003 101.22V101.095C139.897 100.805 139.781 100.514 139.655 100.234C139.627 100.185 139.604 100.133 139.587 100.079C139.462 99.8082 139.316 99.5374 139.171 99.2666V99.0925C139.019 98.8189 138.851 98.5541 138.668 98.2993C138.485 98.0381 138.301 97.7963 138.098 97.5448V97.4868C137.895 97.2547 137.691 97.0225 137.469 96.8L137.392 96.713C137.169 96.5002 136.947 96.2874 136.724 96.0939L136.637 96.0166C136.395 95.8134 136.154 95.62 135.902 95.4362C135.365 95.0687 134.799 94.7452 134.209 94.4689C133.919 94.3335 133.619 94.1981 133.319 94.082C132.056 93.5936 130.718 93.3253 129.363 93.2889C129.025 93.2889 128.677 93.2889 128.328 93.2889C118.317 93.7145 111.411 91.2866 107.223 85.7539C106.108 84.1562 105.174 82.4401 104.437 80.6371L104.379 80.5113C102.357 75.3268 97.8402 71.6802 92.6073 71.8059C91.7296 71.8156 90.8562 71.9292 90.0053 72.1445C87.9281 72.6711 86.0317 73.749 84.5165 75.2643C83.0012 76.7795 81.9233 78.6759 81.3967 80.7531C81.1839 80.7144 81.1645 80.8402 81.1355 80.9563Z" fill="#FF6D2A"/>
<path d="M176.604 117.181C180.009 117.181 181.247 116.097 181.247 114.085C181.247 111.609 178.926 110.603 175.057 109.442C168.015 107.353 160.354 104.49 160.354 95.5138C160.354 88.9364 164.61 84.6804 174.283 84.6804C178.458 84.6767 182.618 85.1966 186.664 86.2281C186.842 86.291 187.005 86.3932 187.139 86.5271C187.272 86.661 187.375 86.8233 187.438 87.0019C187.438 87.0019 188.211 92.8829 188.211 93.1924C188.217 93.2955 188.201 93.3986 188.164 93.495C188.127 93.5914 188.07 93.679 187.997 93.752C187.924 93.825 187.837 93.8818 187.74 93.9187C187.644 93.9556 187.541 93.9718 187.438 93.9662C183.11 93.0428 178.706 92.5247 174.283 92.4186C171.188 92.4186 169.64 93.5019 169.64 95.5138C169.64 97.99 171.961 98.996 175.83 100.157C182.872 102.246 190.533 104.993 190.533 114.085C190.533 120.276 185.503 124.919 176.604 124.919C171.61 124.948 166.644 124.164 161.902 122.597C161.723 122.534 161.561 122.432 161.427 122.298C161.293 122.164 161.191 122.002 161.128 121.823C161.128 121.823 160.354 115.942 160.354 115.633C160.349 115.53 160.365 115.427 160.402 115.33C160.439 115.234 160.495 115.146 160.568 115.073C160.641 115 160.729 114.944 160.825 114.907C160.922 114.87 161.025 114.854 161.128 114.859C161.515 114.859 169.64 117.181 176.604 117.181Z" fill="#2F3033"/>
<path d="M206.551 108.669C207.17 113.621 209.26 117.181 216.998 117.181C221.419 117.042 225.82 116.525 230.153 115.633C230.256 115.627 230.359 115.644 230.455 115.68C230.552 115.717 230.639 115.774 230.712 115.847C230.785 115.92 230.842 116.008 230.879 116.104C230.916 116.201 230.932 116.304 230.926 116.407C230.926 116.639 230.153 122.597 230.153 122.597C230.127 122.793 230.037 122.975 229.897 123.115C229.757 123.255 229.575 123.345 229.379 123.371C225.333 124.403 221.173 124.922 216.998 124.919C200.361 124.919 196.879 115.865 196.879 104.8C196.879 93.7341 200.438 84.7579 216.224 84.7579C227.212 84.7579 233.325 90.871 233.325 104.8V107.895C233.306 108.107 233.208 108.304 233.05 108.447C232.893 108.591 232.687 108.67 232.474 108.669H206.551ZM206.551 100.931H223.885C223.575 96.5972 221.641 92.4186 216.224 92.4186C208.873 92.4186 207.093 96.0555 206.551 100.931Z" fill="#2F3033"/>
<path d="M242.069 67.5791C242.064 67.476 242.08 67.3729 242.117 67.2765C242.154 67.18 242.21 67.0925 242.283 67.0195C242.356 66.9465 242.444 66.8897 242.54 66.8528C242.637 66.8159 242.74 66.7997 242.843 66.8053L250.581 66.0314C250.684 66.0259 250.787 66.042 250.884 66.079C250.98 66.1159 251.068 66.1727 251.141 66.2457C251.214 66.3187 251.27 66.4062 251.307 66.5026C251.344 66.5991 251.36 66.7022 251.355 66.8053V117.954C251.384 119.785 251.644 121.605 252.129 123.371C252.134 123.474 252.118 123.577 252.081 123.673C252.044 123.77 251.987 123.857 251.914 123.93C251.841 124.003 251.754 124.06 251.657 124.097C251.561 124.134 251.458 124.15 251.355 124.145H243.617C243.307 124.145 242.998 123.835 242.843 123.371C242.323 121.612 242.063 119.788 242.069 117.954V67.5791Z" fill="#2F3033"/>
<path d="M262.729 67.5791C262.724 67.476 262.74 67.3729 262.777 67.2765C262.814 67.18 262.871 67.0925 262.944 67.0195C263.017 66.9465 263.104 66.8897 263.2 66.8528C263.297 66.8159 263.4 66.7997 263.503 66.8053L271.241 66.0314C271.344 66.0259 271.447 66.042 271.544 66.079C271.64 66.1159 271.728 66.1727 271.801 66.2457C271.874 66.3187 271.931 66.4062 271.968 66.5026C272.004 66.5991 272.021 66.7022 272.015 66.8053V117.954C272.045 119.785 272.305 121.605 272.789 123.371C272.794 123.474 272.778 123.577 272.741 123.673C272.704 123.77 272.648 123.857 272.575 123.93C272.502 124.003 272.414 124.06 272.318 124.097C272.221 124.134 272.118 124.15 272.015 124.145H264.277C263.967 124.145 263.658 123.835 263.503 123.371C262.984 121.612 262.723 119.788 262.729 117.954V67.5791Z" fill="#2F3033"/>
<path d="M290.896 108.669C291.515 113.621 293.604 117.181 301.342 117.181C305.764 117.042 310.165 116.525 314.497 115.633C314.6 115.627 314.703 115.644 314.8 115.68C314.896 115.717 314.984 115.774 315.057 115.847C315.13 115.92 315.187 116.008 315.224 116.104C315.26 116.201 315.277 116.304 315.271 116.407C315.271 116.639 314.497 122.597 314.497 122.597C314.471 122.793 314.381 122.975 314.242 123.115C314.102 123.255 313.92 123.345 313.723 123.371C309.677 124.403 305.518 124.922 301.342 124.919C284.706 124.919 281.223 115.865 281.223 104.8C281.223 93.7341 284.783 84.7579 300.569 84.7579C311.557 84.7579 317.67 90.871 317.67 104.8V107.895C317.651 108.107 317.552 108.304 317.395 108.447C317.237 108.591 317.032 108.67 316.819 108.669H290.896ZM290.896 100.931H308.229C307.92 96.5972 305.985 92.4186 300.569 92.4186C293.217 92.4186 291.438 96.0555 290.896 100.931Z" fill="#2F3033"/>
<path d="M343.429 84.6804C355.036 84.6804 362.774 90.8709 362.774 104.8C362.774 118.728 355.036 124.919 343.429 124.919C331.821 124.919 324.083 118.728 324.083 104.8C324.083 90.8709 331.821 84.6804 343.429 84.6804ZM343.429 117.181C351.167 117.181 353.488 112.538 353.488 104.8C353.488 97.0614 351.167 92.4185 343.429 92.4185C335.691 92.4185 333.369 97.0614 333.369 104.8C333.369 112.538 335.691 117.181 343.429 117.181Z" fill="#2F3033"/>
</svg>
